<?xml version="1.0" standalone="no"?>
<!DOCTYPE svg PUBLIC "-//W3C//DTD SVG 20010904//EN"
 "http://www.w3.org/TR/2001/REC-SVG-20010904/DTD/svg10.dtd">
<svg version="1.0" xmlns="http://www.w3.org/2000/svg"
 width="893.000000pt" height="286.000000pt" viewBox="0 0 893.000000 286.000000"
 preserveAspectRatio="xMidYMid meet">
<metadata>
Created by potrace 1.16, written by Peter Selinger 2001-2019
</metadata>
<g transform="translate(0.000000,286.000000) scale(0.100000,-0.100000)"
fill="#000000" stroke="none">
<path d="M6736 2729 c-419 -37 -760 -209 -855 -432 -28 -65 -44 -161 -36 -221
8 -64 45 -147 89 -201 37 -45 147 -124 241 -174 33 -18 88 -50 122 -71 140
-89 307 -133 1053 -279 264 -51 280 -60 259 -133 -11 -41 -44 -75 -99 -103
-98 -50 -84 -49 -817 -55 l-693 -5 25 -53 c32 -68 31 -72 -5 -72 -16 0 -30 -2
-30 -4 0 -2 18 -36 40 -76 22 -40 40 -75 40 -78 0 -2 -219 -2 -487 1 -480 5
-517 8 -674 42 -30 7 -32 6 -20 -9 33 -40 150 -92 256 -114 28 -6 64 -14 80
-18 28 -6 1035 -22 1044 -16 3 1 -5 23 -17 47 -28 57 -28 63 2 58 18 -4 30
-19 48 -59 l23 -54 680 0 c834 0 919 7 1205 98 167 52 344 159 419 253 76 94
112 229 91 347 -25 145 -123 260 -297 349 -54 28 -120 64 -147 82 -160 101
-509 192 -1046 271 -113 17 -230 36 -260 43 l-55 13 1 38 c2 66 83 127 217
163 77 21 347 24 452 5 157 -28 193 -42 236 -90 22 -25 52 -72 68 -105 l29
-60 68 -1 69 -1 30 -57 30 -58 238 0 237 0 0 326 0 325 -102 -2 -101 -2 -1 54
-1 54 -197 3 -197 3 -38 -50 c-22 -30 -44 -49 -53 -47 -8 2 -63 18 -122 35
-279 82 -709 119 -1042 90z"/>
<path d="M1457 2643 c-2 -5 -84 -159 -182 -343 -97 -184 -212 -400 -255 -480
-42 -80 -131 -246 -196 -369 -123 -233 -176 -306 -244 -341 -43 -22 -141 -40
-217 -40 l-53 0 0 -125 0 -125 100 0 100 0 0 -60 0 -60 630 0 631 0 -3 132 -3
131 -71 -2 c-39 -1 -83 1 -97 4 -25 7 -27 11 -27 56 l0 49 -55 0 c-31 0 -55 5
-55 10 0 6 23 55 50 110 l50 100 308 0 309 0 26 -53 c17 -32 27 -69 27 -95 0
-56 -13 -61 -201 -69 l-149 -6 0 -124 0 -123 95 0 95 0 0 -60 0 -60 855 0 855
0 0 135 0 135 -25 -6 c-14 -3 -59 -3 -100 1 l-75 7 0 49 0 49 -101 0 -100 0
-84 173 c-194 403 -528 1104 -537 1128 -8 24 -12 25 -63 21 l-55 -4 0 76 0 76
-57 0 -58 0 -24 55 -23 55 -509 0 c-279 0 -510 -3 -512 -7z m467 -840 c31 -67
56 -124 56 -127 0 -3 -54 -6 -121 -6 -66 0 -119 4 -117 8 71 169 114 260 119
254 4 -4 32 -62 63 -129z"/>
<path d="M5505 2419 c31 -37 59 -92 69 -134 15 -59 8 -153 -15 -205 -53 -124
-243 -232 -483 -274 -71 -13 -71 -13 -31 -20 130 -22 206 -40 252 -61 l53 -24
77 26 c100 32 201 85 257 135 138 121 136 337 -4 469 -42 39 -173 119 -195
119 -4 0 5 -14 20 -31z"/>
<path d="M2830 2338 l0 -58 90 0 c55 0 90 4 90 10 0 6 -6 26 -14 44 -15 37
-30 44 -112 55 l-54 8 0 -59z"/>
<path d="M3930 2135 l0 -245 100 0 100 0 0 190 0 190 178 0 c97 0 206 -5 242
-10 35 -5 66 -7 69 -5 8 9 -43 57 -83 77 -72 37 -159 48 -388 48 l-218 0 0
-245z"/>
<path d="M3210 1902 c0 -46 5 -59 33 -91 63 -73 321 -366 327 -371 3 -3 115
-131 250 -285 135 -154 257 -294 273 -311 15 -18 34 -40 42 -50 11 -16 12 39
8 359 l-6 378 206 -3 c114 -2 207 0 207 5 0 4 -15 23 -32 42 -50 53 -113 65
-365 72 l-213 6 0 -256 c0 -141 -3 -258 -8 -261 -4 -2 -59 55 -122 127 -63 72
-155 177 -205 233 -221 248 -361 410 -377 433 l-18 26 0 -53z"/>
<path d="M5430 1597 c30 -67 40 -130 49 -294 9 -169 14 -185 80 -230 31 -21
116 -41 127 -30 3 2 0 79 -6 170 -11 187 -32 271 -80 329 -30 37 -137 98 -171
98 -17 0 -17 -2 1 -43z"/>
<path d="M92 308 l3 -302 4417 -1 4418 0 0 303 0 302 -4420 0 -4420 0 2 -302z
m1011 161 c42 -11 97 -62 97 -89 0 -13 -10 -19 -36 -22 -30 -3 -41 1 -64 24
-22 22 -38 28 -70 28 -49 0 -94 -23 -109 -57 -30 -66 0 -173 55 -193 63 -24
144 1 144 45 0 23 -4 25 -45 25 -44 0 -45 1 -45 33 l0 33 90 0 91 0 -3 -81 -3
-80 -50 -24 c-62 -30 -182 -35 -230 -9 -115 61 -142 229 -51 317 57 55 143 74
229 50z m1239 1 c56 -16 129 -110 84 -110 -7 0 -28 -3 -45 -6 -24 -5 -31 -3
-31 9 0 47 -100 63 -146 23 -24 -20 -28 -33 -32 -88 -6 -99 26 -148 98 -148
30 0 81 37 91 67 5 16 79 -2 79 -19 0 -23 -43 -79 -73 -95 -20 -10 -57 -17
-98 -17 -109 -1 -173 55 -186 164 -19 158 104 263 259 220z m2519 -10 c27 -12
59 -58 59 -84 0 -12 -10 -16 -39 -16 -30 0 -42 5 -55 25 -14 21 -24 25 -65 25
-84 0 -97 -50 -19 -70 163 -44 194 -66 192 -141 -2 -77 -79 -126 -183 -116
-72 6 -101 20 -130 62 -31 46 -25 69 19 72 30 3 38 -2 55 -30 18 -28 26 -32
69 -35 54 -4 89 18 84 52 -3 21 -19 28 -130 60 -38 11 -65 27 -82 47 -37 43
-34 79 10 137 1 2 20 10 41 18 43 16 133 13 174 -6z m1759 -2 c38 -20 91 -81
79 -92 -2 -2 -23 -7 -46 -11 -36 -6 -42 -4 -48 15 -8 24 -42 40 -86 40 -21 0
-41 -10 -61 -30 -29 -30 -30 -33 -26 -106 3 -69 6 -79 31 -100 18 -15 41 -24
61 -24 36 0 86 32 86 55 0 8 4 16 8 19 11 6 82 -15 82 -24 0 -14 -46 -74 -70
-92 -54 -39 -166 -32 -225 14 -82 64 -86 241 -7 311 54 49 153 59 222 25z
m921 12 c42 -12 75 -44 84 -82 7 -27 6 -28 -37 -28 -38 0 -47 4 -56 25 -10 21
-18 25 -56 25 -58 0 -76 -8 -76 -32 0 -22 34 -38 120 -58 111 -26 156 -120 93
-190 -51 -56 -197 -66 -259 -18 -28 23 -58 83 -49 98 4 6 22 10 40 10 28 0 37
-6 49 -29 18 -34 34 -41 87 -41 37 0 79 26 79 48 0 18 -37 40 -90 52 -114 27
-150 57 -150 124 0 39 44 91 83 99 42 8 102 7 138 -3z m-6859 -132 c31 -73 68
-159 82 -190 l26 -58 -49 0 c-47 0 -48 1 -60 40 -7 25 -18 40 -29 41 -18 1
-142 1 -154 0 -4 -1 -13 -19 -19 -41 -12 -39 -13 -40 -60 -40 l-47 0 65 153
c35 83 71 169 80 190 14 35 17 37 62 37 l47 0 56 -132z m918 102 l0 -29 -112
-3 -113 -3 -3 -42 -3 -43 105 0 106 0 0 -30 0 -29 -102 -3 -103 -3 0 -50 0
-50 113 3 112 4 0 -36 0 -36 -155 0 -155 0 0 190 0 190 155 0 155 0 0 -30z
m242 -96 l83 -126 3 126 3 126 39 0 40 0 0 -190 0 -190 -45 0 -45 0 -78 119
c-42 66 -81 120 -85 120 -5 1 -6 -46 -3 -104 3 -58 3 -112 0 -120 -4 -9 -19
-15 -40 -15 l-33 0 -3 186 c-2 102 -1 188 1 190 2 2 22 4 43 4 38 0 39 -1 120
-126z m988 96 l0 -29 -112 -3 -113 -3 -3 -42 -3 -43 105 0 106 0 0 -30 0 -30
-106 0 -105 0 3 -52 3 -52 113 1 112 1 0 -34 0 -34 -155 0 -155 0 0 190 0 190
155 0 155 0 0 -30z m547 -3 c54 -54 28 -153 -44 -172 l-26 -6 35 -37 c19 -20
49 -58 67 -84 l32 -48 -53 0 -53 0 -45 66 c-51 76 -73 94 -112 94 l-28 0 0
-80 0 -80 -39 0 -40 0 -3 148 c-2 81 -2 166 0 190 l3 43 139 -3 c137 -3 140
-3 167 -31z m423 3 l0 -29 -112 -3 -113 -3 0 -40 0 -40 103 -3 102 -3 0 -29 0
-30 -106 0 -105 0 3 -51 3 -51 113 -1 112 0 0 -33 0 -34 -157 0 -158 0 3 190
3 190 154 0 155 0 0 -30z m350 15 c56 -29 68 -98 25 -140 -13 -14 -20 -25 -16
-25 4 0 20 -11 35 -25 38 -35 36 -93 -3 -137 l-29 -33 -146 -3 -146 -3 0 190
0 191 125 0 c93 0 134 -4 155 -15z m230 -175 l0 -190 -45 0 -45 0 0 190 0 190
45 0 45 0 0 -190z m940 160 c0 -17 -5 -30 -12 -31 -7 0 -58 -1 -113 -2 l-100
-2 -3 -42 -3 -43 105 0 106 0 0 -30 0 -30 -105 0 -105 0 0 -52 0 -53 115 2
115 2 0 -35 0 -34 -154 0 -154 0 -6 28 c-4 22 -2 295 3 340 1 9 39 12 156 12
l155 0 0 -30z m360 15 c37 -19 50 -43 50 -92 0 -47 -19 -76 -60 -93 l-31 -13
29 -31 c16 -17 45 -55 66 -83 l38 -53 -54 0 -53 1 -50 69 c-49 68 -78 90 -115
90 -18 0 -20 -7 -20 -80 l0 -80 -45 0 -45 0 0 190 0 190 130 0 c97 0 139 -4
160 -15z m224 -122 c27 -73 52 -130 56 -128 4 3 19 40 34 82 60 180 58 178
110 181 l46 3 -21 -53 c-40 -101 -91 -233 -107 -281 l-16 -48 -50 3 -50 3 -56
145 c-31 80 -64 164 -73 188 l-17 43 47 -3 48 -3 49 -132z m366 -53 l0 -190
-40 0 -40 0 0 190 0 190 40 0 40 0 0 -190z m808 159 l-3 -32 -107 2 -108 2 0
-45 0 -46 105 0 105 0 0 -30 0 -30 -105 0 -105 0 0 -53 0 -53 60 4 c33 2 84 1
115 -3 53 -6 55 -8 55 -36 l0 -29 -160 0 -160 0 0 190 0 190 156 0 155 0 -3
-31z m924 -153 c43 -98 78 -183 78 -187 0 -5 -20 -9 -44 -9 -42 0 -44 1 -60
43 l-16 42 -82 -2 c-87 -1 -89 -2 -108 -56 -8 -24 -14 -27 -55 -27 -25 0 -45
2 -45 4 0 2 11 28 24 57 28 64 98 228 120 282 15 37 16 38 63 35 l47 -3 78
-179z m418 169 c37 -19 50 -43 50 -95 0 -46 -30 -85 -75 -96 -25 -6 -26 -7 -6
-21 20 -13 111 -134 111 -147 0 -3 -22 -6 -49 -6 -48 0 -49 1 -90 60 -49 69
-85 100 -117 100 -23 0 -24 -3 -24 -80 l0 -80 -45 0 -45 0 0 190 0 190 130 0
c97 0 139 -4 160 -15z m220 -143 l0 -158 103 1 102 0 3 -32 3 -33 -150 0 -151
0 0 190 0 190 45 0 45 0 0 -158z"/>
<path d="M3150 360 l0 -50 68 0 c54 0 72 4 85 18 42 46 3 82 -90 82 l-63 0 0
-50z"/>
<path d="M3960 201 l0 -50 73 5 c92 7 93 8 99 38 8 41 -18 56 -100 56 l-72 0
0 -49z"/>
<path d="M5480 360 l0 -50 69 0 c76 0 105 15 99 53 -4 30 -44 47 -110 47 l-58
0 0 -50z"/>
<path d="M8220 361 l0 -51 65 0 c52 0 69 4 85 20 24 24 24 30 7 54 -10 14 -32
20 -85 24 l-72 5 0 -52z"/>
</g>
</svg>
